# xmcd
#
# Track frame offsets: 
#        150
#        12480
#        27530
#        44570
#        55995
#        71952
#        85932
#        101837
#        117830
#        128800
#        142060
#        156827
#        171672
#        185342
#        199270
#        227570
#        244107
#        256040
#        274110
#        294090
#        310622
#        333207
#
# Disc length: 4474 seconds
#
# Revision: 0
# Processed by: cddbd v1.5.2PL0 Copyright (c) Steve Scherf et al.
# Submitted via: ExactAudioCopy v0.95a5
#
DISCID=46117816
DTITLE=Ray Conniff - Another Somebody Done Somebody Wrong Song - Love 
DTITLE=Will Keep Us Together
DYEAR=2004
DGENRE=
TTITLE0=My Eyes Adored You
TTITLE1=The Best of My Love
TTITLE2=He Don't Love You (Like I Love You)
TTITLE3=Lovin' You
TTITLE4=Last Farewell
TTITLE5=(Hey Won't You Play) Another Somebody Done Somebody Wrong Song
TTITLE6=My Melody of Love
TTITLE7=Only Yesterday
TTITLE8=Before the Next Teardrop Falls
TTITLE9=I Need You Baby
TTITLE10=On the Run
TTITLE11=Jackie Blues
TTITLE12=Please Mr. Please
TTITLE13=Midnight Blues
TTITLE14=Rhinestone Cowboy - Wildfire
TTITLE15=Feelings
TTITLE16=Theme from Paper Tiger (My Little Friend)
TTITLE17=I'm Sorry
TTITLE18=At Seventeen
TTITLE19=Solitaire
TTITLE20=Love Will Keep Us Together - How Sweet It Is (To Be Loved Yo 
TTITLE20=You)
TTITLE21=Love Theme from an X-Rated Movie
EXTD=
EXTT0=
EXTT1=
EXTT2=
EXTT3=
EXTT4=
EXTT5=
EXTT6=
EXTT7=
EXTT8=
EXTT9=
EXTT10=
EXTT11=
EXTT12=
EXTT13=
EXTT14=
EXTT15=
EXTT16=
EXTT17=
EXTT18=
EXTT19=
EXTT20=
EXTT21=
PLAYORDER=
